<svg width="720" height="720" viewBox="0 0 720 720" fill="none" xmlns="http://www.w3.org/2000/svg">
  <rect width="720" height="720" rx="64" fill="#FFF2F7"/>
  <circle cx="360" cy="360" r="240" fill="#FFFFFF" fill-opacity="0.75"/>
  <path d="M541 150L553 125L565 150L590 161L565 172L553 197L541 172L516 161L541 150Z" fill="#FFE56B"/>
  <path d="M132 173C148 146 173 133 201 133C229 133 254 148 266 174C279 148 304 133 332 133C360 133 385 146 401 173C416 200 411 231 390 253C369 276 339 299 266 346C194 299 164 276 143 253C122 231 117 200 132 173Z" fill="#FFC8DE"/>
  <g transform="translate(102 122)">
    <g transform="translate(214 28)">
      <path d="M74 99L42 28C35 12 46 -6 64 -2L101 81L74 99Z" fill="#FFF9FC"/>
      <path d="M182 99L214 28C221 12 210 -6 192 -2L155 81L182 99Z" fill="#FFF9FC"/>
      <path d="M78 94L63 58C58 47 64 37 76 36L95 76L78 94Z" fill="#FFC8DE"/>
      <path d="M178 94L193 58C198 47 192 37 180 36L161 76L178 94Z" fill="#FFC8DE"/>
      <ellipse cx="128" cy="212" rx="104" ry="96" fill="#FFFDFE"/>
      <ellipse cx="128" cy="309" rx="82" ry="54" fill="#FFF6FA"/>
      <ellipse cx="88" cy="194" rx="16" ry="16" fill="#32272E"/>
      <ellipse cx="168" cy="194" rx="16" ry="16" fill="#32272E"/>
      <circle cx="83" cy="189" r="5" fill="white"/>
      <circle cx="163" cy="189" r="5" fill="white"/>
      <path d="M128 204C139 204 147 212 147 223C147 234 139 242 128 246C117 242 109 234 109 223C109 212 117 204 128 204Z" fill="#F56A9D"/>
      <path d="M100 326L76 382" stroke="#FFFDFE" stroke-width="22" stroke-linecap="round"/>
      <path d="M156 326L180 382" stroke="#FFFDFE" stroke-width="22" stroke-linecap="round"/>
    </g>
    <g transform="translate(42 86)">
      <path d="M76 101L44 30C37 14 49 -4 67 0L104 83L76 101Z" fill="#F8B15A"/>
      <path d="M184 101L216 30C223 14 211 -4 193 0L156 83L184 101Z" fill="#F3A13D"/>
      <path d="M80 95L65 60C60 49 66 39 78 38L97 78L80 95Z" fill="#FFD7A0"/>
      <path d="M180 95L195 60C200 49 194 39 182 38L163 78L180 95Z" fill="#FFD7A0"/>
      <ellipse cx="130" cy="214" rx="106" ry="98" fill="#F5A847"/>
      <ellipse cx="130" cy="314" rx="82" ry="56" fill="#FFD9A3"/>
      <ellipse cx="130" cy="234" rx="74" ry="70" fill="#FFE7BF"/>
      <circle cx="88" cy="194" r="16" fill="#5B3823"/>
      <circle cx="170" cy="194" r="16" fill="#5B3823"/>
      <circle cx="83" cy="189" r="5" fill="white"/>
      <circle cx="165" cy="189" r="5" fill="white"/>
      <path d="M130 205C141 205 149 213 149 224C149 235 141 243 130 247C119 243 111 235 111 224C111 213 119 205 130 205Z" fill="#D96C6C"/>
      <path d="M98 334L74 390" stroke="#F5A847" stroke-width="24" stroke-linecap="round"/>
      <path d="M160 334L184 390" stroke="#F5A847" stroke-width="24" stroke-linecap="round"/>
    </g>
  </g>
</svg>
