<svg width="720" height="720" viewBox="0 0 720 720" fill="none" xmlns="http://www.w3.org/2000/svg">
  <rect width="720" height="720" rx="64" fill="#FFF0F6"/>
  <circle cx="360" cy="360" r="240" fill="#FFFFFF" fill-opacity="0.76"/>
  <g transform="translate(102 126)">
    <g transform="translate(214 48)">
      <path d="M74 99L42 28C35 12 46 -6 64 -2L101 81L74 99Z" fill="#FFF9FC"/>
      <path d="M182 99L214 28C221 12 210 -6 192 -2L155 81L182 99Z" fill="#FFF9FC"/>
      <ellipse cx="128" cy="212" rx="104" ry="96" fill="#FFFDFE"/>
      <ellipse cx="128" cy="309" rx="82" ry="54" fill="#FFF6FA"/>
      <path d="M82 198C90 190 99 190 107 198" stroke="#32272E" stroke-width="8" stroke-linecap="round"/>
      <path d="M149 198C157 190 166 190 174 198" stroke="#32272E" stroke-width="8" stroke-linecap="round"/>
      <path d="M128 208C138 208 145 215 145 224C145 234 138 241 128 244C118 241 111 234 111 224C111 215 118 208 128 208Z" fill="#F56A9D"/>
      <path d="M106 246C118 240 138 240 150 246" stroke="#32272E" stroke-width="8" stroke-linecap="round"/>
      <path d="M84 204C88 224 88 245 82 266" stroke="#79CFFF" stroke-width="8" stroke-linecap="round"/>
      <path d="M172 204C176 224 176 245 170 266" stroke="#79CFFF" stroke-width="8" stroke-linecap="round"/>
    </g>
    <g transform="translate(44 108)">
      <path d="M76 101L44 30C37 14 49 -4 67 0L104 83L76 101Z" fill="#F8B15A"/>
      <path d="M184 101L216 30C223 14 211 -4 193 0L156 83L184 101Z" fill="#F3A13D"/>
      <ellipse cx="130" cy="214" rx="106" ry="98" fill="#F5A847"/>
      <ellipse cx="130" cy="314" rx="82" ry="56" fill="#FFD9A3"/>
      <ellipse cx="130" cy="234" rx="74" ry="70" fill="#FFE7BF"/>
      <path d="M83 199C91 191 100 191 108 199" stroke="#5B3823" stroke-width="8" stroke-linecap="round"/>
      <path d="M152 199C160 191 169 191 177 199" stroke="#5B3823" stroke-width="8" stroke-linecap="round"/>
      <path d="M130 210C140 210 147 217 147 226C147 236 140 243 130 246C120 243 113 236 113 226C113 217 120 210 130 210Z" fill="#D96C6C"/>
      <path d="M108 248C120 242 140 242 152 248" stroke="#5B3823" stroke-width="8" stroke-linecap="round"/>
      <path d="M85 206C89 226 89 247 83 268" stroke="#79CFFF" stroke-width="8" stroke-linecap="round"/>
    </g>
  </g>
</svg>
