<svg width="720" height="720" viewBox="0 0 720 720" fill="none" xmlns="http://www.w3.org/2000/svg">
  <defs>
    <linearGradient id="bg" x1="90" y1="90" x2="632" y2="648" gradientUnits="userSpaceOnUse">
      <stop stop-color="#FFFDFE"/>
      <stop offset="1" stop-color="#FFE7F1"/>
    </linearGradient>
    <linearGradient id="fur" x1="360" y1="180" x2="360" y2="548" gradientUnits="userSpaceOnUse">
      <stop stop-color="#FFFDFE"/>
      <stop offset="1" stop-color="#FFF1F7"/>
    </linearGradient>
    <linearGradient id="bow" x1="360" y1="136" x2="360" y2="214" gradientUnits="userSpaceOnUse">
      <stop stop-color="#FFAFD0"/>
      <stop offset="1" stop-color="#F4639D"/>
    </linearGradient>
  </defs>
  <rect width="720" height="720" rx="68" fill="url(#bg)"/>
  <circle cx="360" cy="362" r="228" fill="#FFFFFF" fill-opacity="0.76"/>
  <path d="M550 144L564 116L578 144L607 150L586 169L591 198L564 184L537 198L542 169L521 150L550 144Z" fill="#FFD76A"/>
  <g transform="translate(132 108)">
    <path d="M164 112L120 38C110 21 122 0 143 3L196 96L164 112Z" fill="url(#fur)"/>
    <path d="M292 112L336 38C346 21 334 0 313 3L260 96L292 112Z" fill="url(#fur)"/>
    <path d="M166 104L148 62C142 49 149 37 163 36L186 84L166 104Z" fill="#FFC7DE"/>
    <path d="M290 104L308 62C314 49 307 37 293 36L270 84L290 104Z" fill="#FFC7DE"/>
    <ellipse cx="228" cy="262" rx="146" ry="136" fill="url(#fur)"/>
    <ellipse cx="228" cy="400" rx="120" ry="76" fill="#FFF8FB"/>
    <ellipse cx="163" cy="381" rx="54" ry="38" fill="#FFF8FB"/>
    <ellipse cx="293" cy="381" rx="54" ry="38" fill="#FFF8FB"/>
    <path d="M196 138C208 122 224 114 241 114C262 114 279 126 291 146L260 170L196 138Z" fill="url(#bow)"/>
    <path d="M259 170L314 126C334 146 338 173 321 188C304 202 280 196 259 170Z" fill="url(#bow)"/>
    <path d="M196 138L145 126C127 144 127 169 142 184C157 198 179 191 196 138Z" fill="url(#bow)"/>
    <ellipse cx="228" cy="148" rx="23" ry="19" fill="#F95E9A"/>
    <path d="M162 250C171 240 183 240 194 250" stroke="#342A31" stroke-width="10" stroke-linecap="round"/>
    <path d="M262 250C273 240 285 240 294 250" stroke="#342A31" stroke-width="10" stroke-linecap="round"/>
    <ellipse cx="138" cy="286" rx="28" ry="17" fill="#FFABC8"/>
    <ellipse cx="318" cy="286" rx="28" ry="17" fill="#FFABC8"/>
    <path d="M228 262C241 262 250 270 250 281C250 291 241 300 228 304C215 300 206 291 206 281C206 270 215 262 228 262Z" fill="#F56A9D"/>
    <path d="M198 313C216 304 240 304 258 313" stroke="#342A31" stroke-width="9" stroke-linecap="round"/>
    <path d="M170 258C176 286 176 319 168 348" stroke="#67C8FF" stroke-width="12" stroke-linecap="round"/>
    <path d="M182 258C188 286 188 319 180 348" stroke="#8BDBFF" stroke-width="10" stroke-linecap="round"/>
    <path d="M274 258C280 286 280 319 272 348" stroke="#67C8FF" stroke-width="12" stroke-linecap="round"/>
    <path d="M286 258C292 286 292 319 284 348" stroke="#8BDBFF" stroke-width="10" stroke-linecap="round"/>
    <path d="M188 424L154 490" stroke="#FFFDFE" stroke-width="28" stroke-linecap="round"/>
    <path d="M268 424L302 490" stroke="#FFFDFE" stroke-width="28" stroke-linecap="round"/>
    <path d="M188 424L154 490" stroke="#E8D7E2" stroke-width="9" stroke-linecap="round"/>
    <path d="M268 424L302 490" stroke="#E8D7E2" stroke-width="9" stroke-linecap="round"/>
  </g>
</svg>
