<svg width="720" height="720" viewBox="0 0 720 720" fill="none" xmlns="http://www.w3.org/2000/svg">
  <defs>
    <linearGradient id="bg" x1="92" y1="72" x2="628" y2="648" gradientUnits="userSpaceOnUse">
      <stop stop-color="#FFFDFE"/>
      <stop offset="1" stop-color="#FFE8F1"/>
    </linearGradient>
  </defs>
  <rect width="720" height="720" rx="64" fill="url(#bg)"/>
  <circle cx="360" cy="360" r="240" fill="#FFFFFF" fill-opacity="0.7"/>
  <path d="M114 170C130 143 155 130 183 130C211 130 236 145 248 171C261 145 286 130 314 130C342 130 367 143 383 170C398 197 393 229 372 251C351 274 321 297 248 344C176 297 146 274 125 251C104 229 99 197 114 170Z" fill="#FFC1D9"/>
  <g transform="translate(102 122)">
    <g transform="translate(210 22)">
      <path d="M74 99L42 28C35 12 46 -6 64 -2L101 81L74 99Z" fill="#FFF9FC"/>
      <path d="M182 99L214 28C221 12 210 -6 192 -2L155 81L182 99Z" fill="#FFF9FC"/>
      <path d="M78 94L63 58C58 47 64 37 76 36L95 76L78 94Z" fill="#FFC8DE"/>
      <path d="M178 94L193 58C198 47 192 37 180 36L161 76L178 94Z" fill="#FFC8DE"/>
      <ellipse cx="128" cy="212" rx="104" ry="96" fill="#FFFDFE"/>
      <ellipse cx="128" cy="309" rx="82" ry="54" fill="#FFF6FA"/>
      <path d="M96 116C105 103 117 97 130 97C146 97 159 106 168 122L147 139L96 116Z" fill="#F66AA0"/>
      <path d="M146 139L186 107C201 122 204 142 191 153C179 164 162 159 146 139Z" fill="#F66AA0"/>
      <path d="M96 116L59 107C46 121 46 140 57 151C69 162 85 158 96 116Z" fill="#F66AA0"/>
      <ellipse cx="128" cy="123" rx="17" ry="14" fill="#F95E9A"/>
      <path d="M85 196C94 186 104 186 113 196" stroke="#32272E" stroke-width="8" stroke-linecap="round"/>
      <path d="M143 196C152 186 162 186 171 196" stroke="#32272E" stroke-width="8" stroke-linecap="round"/>
      <ellipse cx="71" cy="228" rx="20" ry="12" fill="#FFABC8"/>
      <ellipse cx="185" cy="228" rx="20" ry="12" fill="#FFABC8"/>
      <path d="M128 206C137 206 144 212 144 220C144 229 137 235 128 238C119 235 112 229 112 220C112 212 119 206 128 206Z" fill="#F56A9D"/>
      <path d="M102 236C117 248 139 248 154 236" stroke="#32272E" stroke-width="8" stroke-linecap="round"/>
      <path d="M56 200L20 190" stroke="#32272E" stroke-width="6" stroke-linecap="round"/>
      <path d="M54 220L12 220" stroke="#32272E" stroke-width="6" stroke-linecap="round"/>
      <path d="M56 240L20 250" stroke="#32272E" stroke-width="6" stroke-linecap="round"/>
      <path d="M200 200L236 190" stroke="#32272E" stroke-width="6" stroke-linecap="round"/>
      <path d="M202 220L244 220" stroke="#32272E" stroke-width="6" stroke-linecap="round"/>
      <path d="M200 240L236 250" stroke="#32272E" stroke-width="6" stroke-linecap="round"/>
      <path d="M100 329L76 384" stroke="#FFFDFE" stroke-width="22" stroke-linecap="round"/>
      <path d="M156 329L180 384" stroke="#FFFDFE" stroke-width="22" stroke-linecap="round"/>
    </g>
    <g transform="translate(48 72)">
      <path d="M76 101L44 30C37 14 49 -4 67 0L104 83L76 101Z" fill="#F8B15A"/>
      <path d="M184 101L216 30C223 14 211 -4 193 0L156 83L184 101Z" fill="#F3A13D"/>
      <path d="M80 95L65 60C60 49 66 39 78 38L97 78L80 95Z" fill="#FFD7A0"/>
      <path d="M180 95L195 60C200 49 194 39 182 38L163 78L180 95Z" fill="#FFD7A0"/>
      <ellipse cx="130" cy="214" rx="106" ry="98" fill="#F5A847"/>
      <ellipse cx="130" cy="314" rx="82" ry="56" fill="#FFD9A3"/>
      <ellipse cx="130" cy="234" rx="74" ry="70" fill="#FFE7BF"/>
      <path d="M88 194C97 184 107 184 116 194" stroke="#5B3823" stroke-width="8" stroke-linecap="round"/>
      <path d="M146 194C155 184 165 184 174 194" stroke="#5B3823" stroke-width="8" stroke-linecap="round"/>
      <ellipse cx="73" cy="229" rx="20" ry="12" fill="#F58D8D"/>
      <ellipse cx="187" cy="229" rx="20" ry="12" fill="#F58D8D"/>
      <path d="M130 206C139 206 146 212 146 220C146 229 139 235 130 238C121 235 114 229 114 220C114 212 121 206 130 206Z" fill="#D96C6C"/>
      <path d="M104 236C119 248 141 248 156 236" stroke="#5B3823" stroke-width="8" stroke-linecap="round"/>
      <path d="M58 199L22 189" stroke="#5B3823" stroke-width="6" stroke-linecap="round"/>
      <path d="M56 220L14 220" stroke="#5B3823" stroke-width="6" stroke-linecap="round"/>
      <path d="M58 241L22 251" stroke="#5B3823" stroke-width="6" stroke-linecap="round"/>
      <path d="M202 199L238 189" stroke="#5B3823" stroke-width="6" stroke-linecap="round"/>
      <path d="M204 220L246 220" stroke="#5B3823" stroke-width="6" stroke-linecap="round"/>
      <path d="M202 241L238 251" stroke="#5B3823" stroke-width="6" stroke-linecap="round"/>
      <path d="M98 334L74 390" stroke="#F5A847" stroke-width="24" stroke-linecap="round"/>
      <path d="M160 334L184 390" stroke="#F5A847" stroke-width="24" stroke-linecap="round"/>
    </g>
  </g>
</svg>
