<svg width="720" height="720" viewBox="0 0 720 720" fill="none" xmlns="http://www.w3.org/2000/svg">
  <rect width="720" height="720" rx="56" fill="#FFF7FA"/>
  <circle cx="360" cy="312" r="214" fill="#FFFFFF" fill-opacity="0.86"/>
  <g stroke="#2E316E" stroke-width="8" stroke-linecap="round" stroke-linejoin="round">
    <path d="M86 468H634"/>
    <g transform="translate(86 146)">
      <g transform="translate(6 24)">
        <path d="M112 136L86 68C80 52 90 36 108 40L142 120L112 136Z" fill="#FF9717"/>
        <path d="M224 136L250 68C256 52 246 36 228 40L194 120L224 136Z" fill="#FF9717"/>
        <path d="M116 126L104 88C100 76 107 66 120 66L136 116L116 126Z" fill="#F45AA0"/>
        <path d="M220 126L232 88C236 76 229 66 216 66L200 116L220 126Z" fill="#F45AA0"/>
        <path d="M244 160C244 214 198 248 168 248C138 248 92 214 92 160C92 108 126 82 168 82C210 82 244 108 244 160Z" fill="#FF9717"/>
        <path d="M219 166C219 205 191 226 168 226C145 226 117 205 117 166C117 128 138 112 168 112C198 112 219 128 219 166Z" fill="#FFF3E5" stroke="none"/>
        <ellipse cx="145" cy="165" rx="24" ry="28" fill="#2E316E"/>
        <ellipse cx="191" cy="165" rx="24" ry="28" fill="#2E316E"/>
        <ellipse cx="138" cy="156" rx="7" ry="9" fill="white" stroke="none"/>
        <ellipse cx="184" cy="156" rx="7" ry="9" fill="white" stroke="none"/>
        <path d="M168 182C179 182 187 190 187 199C187 208 179 216 168 220C157 216 149 208 149 199C149 190 157 182 168 182Z" fill="#2E316E"/>
        <path d="M150 218C160 212 176 212 186 218"/>
        <path d="M110 270C110 258 120 248 132 248H150C162 248 172 258 172 270V302H110V270Z" fill="#FF9717"/>
        <path d="M164 270C164 258 174 248 186 248H204C216 248 226 258 226 270V302H164V270Z" fill="#FF9717"/>
        <path d="M128 282C128 276 133 272 139 272H143C149 272 154 276 154 282V302H128V282Z" fill="#FFD26B"/>
        <path d="M182 282C182 276 187 272 193 272H197C203 272 208 276 208 282V302H182V282Z" fill="#FFD26B"/>
      </g>
      <g transform="translate(264 18)">
        <path d="M112 136L86 68C80 52 90 36 108 40L142 120L112 136Z" fill="#FFFFFF"/>
        <path d="M224 136L250 68C256 52 246 36 228 40L194 120L224 136Z" fill="#FFFFFF"/>
        <path d="M116 126L104 88C100 76 107 66 120 66L136 116L116 126Z" fill="#F192BA"/>
        <path d="M220 126L232 88C236 76 229 66 216 66L200 116L220 126Z" fill="#F192BA"/>
        <path d="M244 160C244 214 198 248 168 248C138 248 92 214 92 160C92 108 126 82 168 82C210 82 244 108 244 160Z" fill="#FFFFFF"/>
        <path d="M219 166C219 205 191 226 168 226C145 226 117 205 117 166C117 128 138 112 168 112C198 112 219 128 219 166Z" fill="#FFF2F7" stroke="none"/>
        <ellipse cx="145" cy="165" rx="24" ry="28" fill="#2E316E"/>
        <ellipse cx="191" cy="165" rx="24" ry="28" fill="#2E316E"/>
        <ellipse cx="138" cy="156" rx="7" ry="9" fill="white" stroke="none"/>
        <ellipse cx="184" cy="156" rx="7" ry="9" fill="white" stroke="none"/>
        <path d="M168 182C179 182 187 190 187 199C187 208 179 216 168 220C157 216 149 208 149 199C149 190 157 182 168 182Z" fill="#2E316E"/>
        <path d="M150 218C160 212 176 212 186 218"/>
        <path d="M110 270C110 258 120 248 132 248H150C162 248 172 258 172 270V302H110V270Z" fill="#FFFFFF"/>
        <path d="M164 270C164 258 174 248 186 248H204C216 248 226 258 226 270V302H164V270Z" fill="#FFFFFF"/>
        <path d="M128 282C128 276 133 272 139 272H143C149 272 154 276 154 282V302H128V282Z" fill="#FFD8E8"/>
        <path d="M182 282C182 276 187 272 193 272H197C203 272 208 276 208 282V302H182V282Z" fill="#FFD8E8"/>
      </g>
    </g>
  </g>
</svg>
