<svg width="720" height="720" viewBox="0 0 720 720" fill="none" xmlns="http://www.w3.org/2000/svg">
  <rect width="720" height="720" rx="64" fill="#FFF1F7"/>
  <circle cx="360" cy="360" r="240" fill="#FFFFFF" fill-opacity="0.76"/>
  <path d="M520 148C531 132 547 124 564 124C583 124 598 133 608 147C618 133 633 124 652 124C669 124 685 132 696 148C706 164 703 186 689 201C674 216 653 229 608 258C563 229 542 216 527 201C513 186 510 164 520 148Z" fill="#FFC6DC"/>
  <g transform="translate(102 122)">
    <g transform="translate(206 34)">
      <path d="M74 99L42 28C35 12 46 -6 64 -2L101 81L74 99Z" fill="#FFF9FC"/>
      <path d="M182 99L214 28C221 12 210 -6 192 -2L155 81L182 99Z" fill="#FFF9FC"/>
      <path d="M78 94L63 58C58 47 64 37 76 36L95 76L78 94Z" fill="#FFC8DE"/>
      <path d="M178 94L193 58C198 47 192 37 180 36L161 76L178 94Z" fill="#FFC8DE"/>
      <ellipse cx="128" cy="212" rx="104" ry="96" fill="#FFFDFE"/>
      <ellipse cx="128" cy="309" rx="82" ry="54" fill="#FFF6FA"/>
      <ellipse cx="88" cy="197" rx="22" ry="24" fill="#32272E"/>
      <ellipse cx="168" cy="197" rx="22" ry="24" fill="#32272E"/>
      <circle cx="80" cy="189" r="7" fill="white"/>
      <circle cx="160" cy="189" r="7" fill="white"/>
      <path d="M128 208C138 208 145 215 145 224C145 234 138 241 128 244C118 241 111 234 111 224C111 215 118 208 128 208Z" fill="#F56A9D"/>
      <path d="M105 244C118 238 138 238 151 244" stroke="#32272E" stroke-width="8" stroke-linecap="round"/>
      <path d="M100 326L76 382" stroke="#FFFDFE" stroke-width="22" stroke-linecap="round"/>
      <path d="M156 326L180 382" stroke="#FFFDFE" stroke-width="22" stroke-linecap="round"/>
    </g>
    <g transform="translate(50 96)">
      <path d="M76 101L44 30C37 14 49 -4 67 0L104 83L76 101Z" fill="#F8B15A"/>
      <path d="M184 101L216 30C223 14 211 -4 193 0L156 83L184 101Z" fill="#F3A13D"/>
      <path d="M80 95L65 60C60 49 66 39 78 38L97 78L80 95Z" fill="#FFD7A0"/>
      <path d="M180 95L195 60C200 49 194 39 182 38L163 78L180 95Z" fill="#FFD7A0"/>
      <ellipse cx="130" cy="214" rx="106" ry="98" fill="#F5A847"/>
      <ellipse cx="130" cy="314" rx="82" ry="56" fill="#FFD9A3"/>
      <ellipse cx="130" cy="234" rx="74" ry="70" fill="#FFE7BF"/>
      <ellipse cx="88" cy="197" rx="22" ry="24" fill="#5B3823"/>
      <ellipse cx="170" cy="197" rx="22" ry="24" fill="#5B3823"/>
      <circle cx="80" cy="189" r="7" fill="white"/>
      <circle cx="162" cy="189" r="7" fill="white"/>
      <path d="M130 208C140 208 147 215 147 224C147 234 140 241 130 244C120 241 113 234 113 224C113 215 120 208 130 208Z" fill="#D96C6C"/>
      <path d="M107 244C120 238 140 238 153 244" stroke="#5B3823" stroke-width="8" stroke-linecap="round"/>
      <path d="M98 334L74 390" stroke="#F5A847" stroke-width="24" stroke-linecap="round"/>
      <path d="M160 334L184 390" stroke="#F5A847" stroke-width="24" stroke-linecap="round"/>
    </g>
  </g>
</svg>
